<svg id="Layer_1" data-name="Layer 1" xmlns="http://www.w3.org/2000/svg" viewBox="0 0 503.4 490.98"><defs><style>.cls-1{fill:#fafafa;fill-rule:evenodd;}</style></defs><path class="cls-1" d="M316.7,481.21C177.64,481.21,65,593.85,65,732.91c0,111.38,72.05,205.45,172.1,238.8,12.59,2.2,17.3-5.35,17.3-12,0-6-.31-25.8-.31-46.88-63.24,11.64-79.6-15.42-84.63-29.58-2.84-7.23-15.11-29.57-25.8-35.55-8.81-4.72-21.4-16.36-.32-16.68,19.82-.31,34,18.25,38.7,25.8,22.65,38.07,58.84,27.38,73.31,20.77,2.2-16.36,8.81-27.37,16-33.67-56-6.29-114.52-28-114.52-124.27,0-27.38,9.75-50,25.8-67.65-2.52-6.29-11.33-32.09,2.52-66.7,0,0,21.08-6.61,69.21,25.8a237.43,237.43,0,0,1,125.85,0c48.14-32.72,69.22-25.8,69.22-25.8,13.85,34.61,5,60.41,2.52,66.7,16.05,17.62,25.8,40,25.8,67.65,0,96.59-58.84,118-114.84,124.27,9.12,7.87,17,23,17,46.57,0,33.66-.31,60.72-.31,69.22,0,6.6,4.71,14.47,17.3,12C496.35,938.36,568.4,844,568.4,732.91,568.4,593.85,455.76,481.21,316.7,481.21Z" transform="translate(-65 -481.21)"/></svg>