<svg id="Layer_2" data-name="Layer 2" xmlns="http://www.w3.org/2000/svg" viewBox="0 0 472 491"><defs><style>.cls-1{fill:#ebebeb;}</style></defs><path class="cls-1" d="M531.7,71H150.3A45.3,45.3,0,0,0,105,116.3V516.7A45.3,45.3,0,0,0,150.3,562H531.7A45.3,45.3,0,0,0,577,516.7V116.3A45.3,45.3,0,0,0,531.7,71ZM252,493.67A15.33,15.33,0,0,1,236.67,509H188.33A15.33,15.33,0,0,1,173,493.67V266.33A15.33,15.33,0,0,1,188.33,251h48.34A15.33,15.33,0,0,1,252,266.33ZM212.5,229A51.5,51.5,0,1,1,264,177.5,51.5,51.5,0,0,1,212.5,229ZM526,493.67A15.33,15.33,0,0,1,510.67,509H462.33A15.33,15.33,0,0,1,447,493.67v-120a71.62,71.62,0,0,0-7.88-33.17C433,328.75,422.5,317,405,317c-18.38,0-28.76,12.95-34.47,25.26A72.27,72.27,0,0,0,364,372.78V493.67A15.33,15.33,0,0,1,348.67,509H300.33A15.33,15.33,0,0,1,285,493.67V266.33A15.33,15.33,0,0,1,300.33,251h48.34A15.33,15.33,0,0,1,364,266.33v15.72S383,243,446,248c0,0,73-3,80,93Z" transform="translate(-105 -71)"/></svg>